<svg id="Layer_1" data-name="Layer 1" xmlns="http://www.w3.org/2000/svg" viewBox="0 0 891.67 981.49"><defs><style>.cls-1{fill:#7ac843;}.cls-2{fill:#3fa8f4;}.cls-3{fill:#fff;}</style></defs><title>icon</title><path class="cls-1" d="M517.4,18.51q97.27,57,194.56,114,108.79,63.6,217.59,127.17c3.4,2,7.5,6.22,7.55,9.46.56,33.38.34,66.77.34,101.31H877v12.92c0,93.5.1,187-.17,280.49a56.13,56.13,0,0,1-4.25,21.57C867.45,697.23,858,704,843.34,703.57c-17.58-.51-35.18-.11-52.77-.12-21.29,0-34.82-11.77-36.48-31.79-.28-3.36-.13-6.75-.13-10.12V371.47H268.47V384.3q0,143.28-.17,286.57c0,7.26-1.14,15-4.07,21.65-5.3,12-14.78,19.32-30,18.77-16.85-.61-33.74-.14-50.62-.14-24.26,0-38.22-13-38.49-36.33-.22-19.58,0-39.16,0-58.74V371.55H93.89a77.66,77.66,0,0,1-.93-8.34c-.07-30,.25-60.09-.26-90.12-.12-7.22,2.9-10.72,9-14.25Q304.39,140.83,506.9,22.5c2.12-1.24,4.13-2.65,6.19-4Zm-2.29,271.07q-164.8,0-329.59,0a97.2,97.2,0,0,0-12.9.36c-10.41,1.4-17.4,9.18-17.4,18.8,0,9.33,6.36,16.63,16.52,18.33a85,85,0,0,0,13.92.89q329.6.06,659.17,0a85.14,85.14,0,0,0,13.93-.92c10.08-1.66,16.44-9.06,16.39-18.43,0-9.18-6.68-16.94-16.49-18.52-4.56-.73-9.31-.5-14-.5Q679.9,289.55,515.11,289.58Z" transform="translate(-69.33 -18.51)"/><path class="cls-1" d="M69.33,759.82c2.75-6.85,4.4-14.36,8.49-20.41,8.15-12,20.73-16.38,36-16.36q225,.29,450.08.11c113.78,0,227.56.48,341.33-.38,23.64-.18,42.18,4.5,53.83,24.89v36.46c-7,10.47-15.71,19.22-28,24.3H99.49c-20-8.58-30.8-22.51-29-43.86.08-.87-.74-1.81-1.14-2.72Z" transform="translate(-69.33 -18.51)"/><path class="cls-1" d="M648.51,553.21q0,44,0,88.08c0,25-16.37,40.34-43,40.36q-90.45.06-180.89,0c-26.52,0-42.74-15.42-42.76-40.55q-.06-88.08,0-176.15c0-23.42,16.86-39.22,41.93-39.24q91.51-.06,183,0c25,0,41.6,15.7,41.69,39.44C648.59,494.5,648.51,523.86,648.51,553.21Zm-94.58-12c.05-19-11.67-33.44-28.58-37.83-16.45-4.28-33.76,2.12-43,15.88-9.39,14-9.23,33.74,4.79,43.42,13.12,9.05,12.62,19.52,12.28,31.53-.1,3.7-.06,7.43.2,11.13.55,8.21,5,13.27,14,13.79,8.52.48,14.39-4.79,15-13.81a179.56,179.56,0,0,0,.17-22.25c-.39-6.63,1.28-11,8-14.76A32.32,32.32,0,0,0,553.93,541.19Z" transform="translate(-69.33 -18.51)"/><path class="cls-2" d="M98.94,858.61a21.73,21.73,0,0,0-.5-5,7.24,7.24,0,0,0-1.77-3.39,7.49,7.49,0,0,0-3.51-1.94,21.51,21.51,0,0,0-5.71-.63,92.24,92.24,0,0,0-12.21,1l-.87-6.16q6.8-1.17,14.85-2.42t16.55-2.29q8.49-1,17.06-1.69t16.44-.66a101.25,101.25,0,0,1,19.55,1.8,46.22,46.22,0,0,1,16,6.13A31.2,31.2,0,0,1,185.59,855q4,7.28,4,18.14a55.87,55.87,0,0,1-4.44,22.75A48.13,48.13,0,0,1,172.65,913a55,55,0,0,1-19.25,10.69,79,79,0,0,1-24.83,3.71,7.49,7.49,0,0,1-4.26-.9c-.82-.6-1.23-1.89-1.23-3.88v-.9a5.41,5.41,0,0,1,.07-1,68.93,68.93,0,0,0,18.25-2.11,44.05,44.05,0,0,0,12.83-5.61,30.93,30.93,0,0,0,8.31-8,38.5,38.5,0,0,0,4.77-9.21,42.76,42.76,0,0,0,2.17-9.38A79.8,79.8,0,0,0,170,878q0-10-2.93-16.72a27,27,0,0,0-8-10.63,30.14,30.14,0,0,0-11.74-5.57,60.38,60.38,0,0,0-14.31-1.63c-2.55,0-5,.09-7.33.28s-4.88.44-7.63.76c-.09,3.55-.23,8.31-.39,14.26s-.37,12.8-.58,20.53-.47,16.2-.76,25.41-.58,18.84-.87,28.87-.6,20.36-.94,31-.67,21.15-1,31.67l-17.13,2.08-1.3-.14q.87-19.87,1.59-37.67t1.2-34.65q.46-16.86.75-33.37T98.94,858.61Z" transform="translate(-69.33 -18.51)"/><path class="cls-2" d="M270.14,1000a71.38,71.38,0,0,1-26.67-4.85,56.55,56.55,0,0,1-20.92-14.4A66.51,66.51,0,0,1,208.9,957Q204,942.74,204,923.91a132.32,132.32,0,0,1,2-23.27,108.3,108.3,0,0,1,6.07-21.43,88.5,88.5,0,0,1,10-18.48,66.41,66.41,0,0,1,14-14.51,63.24,63.24,0,0,1,18-9.49,67.69,67.69,0,0,1,21.9-3.39,71.29,71.29,0,0,1,26.66,4.85,56.39,56.39,0,0,1,20.92,14.4,66.31,66.31,0,0,1,13.66,23.82q4.88,14.26,4.88,33a133.17,133.17,0,0,1-2,23.26,109,109,0,0,1-6.07,21.43,88.58,88.58,0,0,1-10.05,18.49,66.82,66.82,0,0,1-14,14.5,63.13,63.13,0,0,1-18,9.49A67.69,67.69,0,0,1,270.14,1000Zm3.25-9a42.41,42.41,0,0,0,15.25-2.63A39.88,39.88,0,0,0,300.89,981a47.32,47.32,0,0,0,9.36-11.56,71.41,71.41,0,0,0,6.54-15.13,110.39,110.39,0,0,0,3.83-18,155.77,155.77,0,0,0,1.26-20.22q0-18.83-3.86-32.71t-10.52-23A43.53,43.53,0,0,0,292,846.81a41.2,41.2,0,0,0-18.82-4.47A42.37,42.37,0,0,0,257.93,845a39.88,39.88,0,0,0-12.25,7.41A47.19,47.19,0,0,0,236.32,864a71.11,71.11,0,0,0-6.54,15.12,109.62,109.62,0,0,0-3.83,18,155.93,155.93,0,0,0-1.26,20.18q0,18.84,3.86,32.71t10.52,23a43.43,43.43,0,0,0,15.5,13.57A41.17,41.17,0,0,0,273.39,991Z" transform="translate(-69.33 -18.51)"/><path class="cls-2" d="M401.81,848.85q3.31,5.68,7.55,12.64t9,14.68q4.77,7.71,9.93,16t10.48,16.54q5.31,8.31,10.52,16.41t10.08,15.55q4.88,7.44,9.25,14t7.91,11.63q0-18.56.07-33.79t.29-27.48q.23-12.26.51-21.78t.76-16.69q.46-7.17,1.08-12.18a73.61,73.61,0,0,1,1.41-8.28,14.54,14.54,0,0,1,1.84-4.6,10.72,10.72,0,0,1,2.75-2.95,10,10,0,0,1,3.4-1.55,16.13,16.13,0,0,1,3.86-.45,28,28,0,0,1,10.05,2v.7a44.65,44.65,0,0,0-6.11,12.46,133.15,133.15,0,0,0-4.37,17.07q-1.81,9.38-2.93,19.77t-1.77,20.59q-.64,10.22-1,19.63t-.55,16.83q-.14,6.51-.29,12.7t-.25,12.4q-.1,6.2-.18,12.53t-.07,13.05l-8.82,1.11-1.3-.14q-2.16-2.91-5.53-7.79t-7.55-11.18q-4.19-6.3-9.07-13.78t-10.11-15.58q-5.25-8.1-10.66-16.55t-10.74-16.75Q416,907.22,411,899.33l-9.43-14.86q-4.41-6.94-8-12.7L387.36,862q-.15,15.3-.47,29.8t-.83,27.87q-.51,13.37-1.12,25.38t-1.34,22.33q-.51,7.27-1.05,12.39a77.34,77.34,0,0,1-1.3,8.55,20.43,20.43,0,0,1-1.88,5.44,7.9,7.9,0,0,1-2.78,3,9.83,9.83,0,0,1-4,1.28,47.87,47.87,0,0,1-5.49.28h-1.95c-.39,0-.87,0-1.44,0l-2.25-.1-1-.69a107.16,107.16,0,0,0,5.53-15q2.42-8.31,4.23-17.62t3.14-19.25q1.33-9.93,2.21-19.9T377,906.08q.54-9.66.83-18.39t.36-16.2q.07-7.47.07-13a23.87,23.87,0,0,0-.47-5.08,7.26,7.26,0,0,0-1.73-3.47,7.44,7.44,0,0,0-3.44-2,21.12,21.12,0,0,0-5.63-.62c-1.64,0-3.48.09-5.53.27s-4.37.47-7,.84l-.79-6.1,11-2.35q4.92-1,8.89-1.73t7.19-1.07a48.92,48.92,0,0,1,5.82-.39,15.45,15.45,0,0,1,4.66.63,11,11,0,0,1,3.69,2,18.34,18.34,0,0,1,3.32,3.71Q399.87,845.47,401.81,848.85Z" transform="translate(-69.33 -18.51)"/><path class="cls-2" d="M522.78,955.48c-.14,1.11-.24,2.17-.29,3.18s-.07,2-.07,3.05a36.32,36.32,0,0,0,2.2,13.4,22.6,22.6,0,0,0,6.29,9,25.1,25.1,0,0,0,9.83,5,49.25,49.25,0,0,0,12.9,1.56,47.63,47.63,0,0,0,13.59-1.9A33.87,33.87,0,0,0,578.54,983a27.59,27.59,0,0,0,10.66-22.51,26.59,26.59,0,0,0-1.34-8.62,27.69,27.69,0,0,0-3.69-7.2,34.42,34.42,0,0,0-5.56-6.06,63.5,63.5,0,0,0-7-5.22q-3.79-2.46-8-4.71t-8.53-4.54q-4.55-2.35-9.06-4.84c-3-1.67-5.89-3.44-8.64-5.34a67.15,67.15,0,0,1-7.66-6.12,37.37,37.37,0,0,1-6.11-7.31,35.41,35.41,0,0,1-4-8.86A36.52,36.52,0,0,1,518.08,881a46.35,46.35,0,0,1,2-13.68,44.5,44.5,0,0,1,13.83-21.08,52.19,52.19,0,0,1,10.7-7A55.61,55.61,0,0,1,557,834.83a61.7,61.7,0,0,1,13.55-1.49,65.87,65.87,0,0,1,6.79.38q3.61.39,7.23,1.14a65.51,65.51,0,0,1,6.9,1.84,35.12,35.12,0,0,1,5.82,2.46,15.69,15.69,0,0,1,4.05,3,5.19,5.19,0,0,1,1.51,3.54c0,1.33,0,3-.07,5s-.11,4.3-.18,6.86-.18,5.35-.33,8.38-.31,6.22-.5,9.59l-7.3-.35c.15-1.66.22-3.25.22-4.78a31.84,31.84,0,0,0-2.13-12.08,23.76,23.76,0,0,0-6-8.72,25.28,25.28,0,0,0-9.32-5.26,39.14,39.14,0,0,0-12.11-1.77,35.59,35.59,0,0,0-12.39,2.11,30.23,30.23,0,0,0-9.94,5.89,26.91,26.91,0,0,0-9,20.39,28.71,28.71,0,0,0,1.37,9.17,29.12,29.12,0,0,0,3.8,7.58,33.47,33.47,0,0,0,5.74,6.3,67.12,67.12,0,0,0,7.23,5.37q3.9,2.54,8.24,4.81t8.74,4.57q4.56,2.28,9.07,4.71t8.64,5.16a62.6,62.6,0,0,1,7.62,6,38.41,38.41,0,0,1,6.07,7.13,33.82,33.82,0,0,1,5.53,19.08,48.62,48.62,0,0,1-2.71,16.83,42.89,42.89,0,0,1-7.26,12.77,45.12,45.12,0,0,1-10.45,9.17,61.61,61.61,0,0,1-12.25,6,70.07,70.07,0,0,1-12.72,3.29,75.69,75.69,0,0,1-11.77,1,92.15,92.15,0,0,1-13.45-.93,70.83,70.83,0,0,1-11-2.46,26.61,26.61,0,0,1-7.45-3.5c-1.81-1.31-2.71-2.67-2.71-4q0-4.63.33-13.29t1-20.57Z" transform="translate(-69.33 -18.51)"/><path class="cls-2" d="M639,858.61a21.73,21.73,0,0,0-.5-5,7.24,7.24,0,0,0-1.77-3.39,7.44,7.44,0,0,0-3.51-1.94,21.48,21.48,0,0,0-5.7-.63,92.24,92.24,0,0,0-12.22,1l-.87-6.16q6.74-1.17,14.71-2.42t16.4-2.29q8.43-1,16.91-1.69t16.3-.66a101.13,101.13,0,0,1,19.44,1.76,45.7,45.7,0,0,1,15.54,5.89A29.79,29.79,0,0,1,724,854q3.76,6.72,3.76,16.69a42.94,42.94,0,0,1-12,30.54,53.4,53.4,0,0,1-13.91,10.31,80.48,80.48,0,0,1-18.22,6.79q7.53,12.32,13.66,21.67t11.28,16.38q5.13,7,9.39,12t8,8.69a60.83,60.83,0,0,0,5.57,5,31.35,31.35,0,0,0,5,3.29,20.48,20.48,0,0,0,4.88,1.8,23.25,23.25,0,0,0,5.13.55,26.28,26.28,0,0,0,5.49-.55,44.71,44.71,0,0,0,5.71-1.66l2,5.68a126.7,126.7,0,0,1-16.26,6,45.92,45.92,0,0,1-11.85,2,19.29,19.29,0,0,1-4.55-.52,20.25,20.25,0,0,1-4.26-1.56,25,25,0,0,1-4.2-2.66c-1.39-1.09-2.89-2.37-4.48-3.85a102,102,0,0,1-9-9.59q-5.13-6-11.6-15.16t-14.34-21.57q-7.87-12.46-17.35-28.8l.15-.9a79,79,0,0,0,21.6-3.39,38.89,38.89,0,0,0,14.28-7.9,29.08,29.08,0,0,0,7.91-11.87A45.58,45.58,0,0,0,708.29,876q0-16.34-9-24.44t-26.52-8.1q-3.76,0-7.16.28c-2.26.18-4.77.44-7.52.76q-.14,5.32-.39,14.26t-.58,20.53q-.33,11.6-.76,25.41t-.87,28.87q-.43,15.06-.94,31t-1,31.67l-17.12,2.08-1.3-.14q.86-19.87,1.59-37.67t1.19-34.65q.46-16.86.76-33.37T639,858.61Z" transform="translate(-69.33 -18.51)"/><path class="cls-2" d="M775.21,859a40.17,40.17,0,0,0-.33-5.57,7.7,7.7,0,0,0-1.48-3.78,6.52,6.52,0,0,0-3.29-2.11,19.74,19.74,0,0,0-5.67-.66q-2.38,0-5.85.24c-2.32.17-4.73.43-7.23.8l-.72-5.75q10.62-2.62,18.24-3.87A81.32,81.32,0,0,1,781.49,837a17.82,17.82,0,0,1,7.34,1.21,7.79,7.79,0,0,1,3.76,3.6,15.43,15.43,0,0,1,1.41,5.85q.21,3.47.21,7.9,0,1.51-.18,8.13t-.5,17q-.33,10.35-.76,23.78t-.9,28.56q-.48,15.13-1,31.26t-1,31.92l-17.13,2.08-1.3-.14q.87-19.87,1.55-37.63T774.2,926q.49-16.79.75-33.24T775.21,859Z" transform="translate(-69.33 -18.51)"/><path class="cls-2" d="M840.1,859a28.66,28.66,0,0,0-.47-5.57,7.83,7.83,0,0,0-1.77-3.78,7.45,7.45,0,0,0-3.58-2.11,21.34,21.34,0,0,0-5.82-.66,92.37,92.37,0,0,0-12.21,1l-.72-5.75q10.47-2.55,17.78-3.84A73.19,73.19,0,0,1,845.52,837a19.39,19.39,0,0,1,7.59,1.21,8.4,8.4,0,0,1,4.08,3.6,14.53,14.53,0,0,1,1.63,5.85q.28,3.47.29,7.9c0,.78,0,2.54-.11,5.26s-.17,6.22-.29,10.49-.28,9.22-.47,14.85-.39,11.76-.58,18.38-.41,13.64-.65,21.05-.48,15-.72,22.85-.5,15.77-.76,23.82-.52,16-.76,23.92l-17.13,2.08-1.3-.14q.87-19.93,1.56-37.91t1.19-34.89q.51-16.94.76-33.31T840.1,859Zm35.34,49.64q9.1,15,16.48,26t13.44,19.18q6.06,8.15,11,13.75t9.11,9.62a70.82,70.82,0,0,0,5.67,5,34.55,34.55,0,0,0,5.09,3.32,20.73,20.73,0,0,0,4.77,1.84,20.41,20.41,0,0,0,4.77.55,29.12,29.12,0,0,0,6.11-.69q3.21-.69,7.12-1.87l2,5.68c-3.47,1.38-6.64,2.6-9.5,3.63s-5.49,1.92-7.88,2.64a59,59,0,0,1-6.54,1.59,32.67,32.67,0,0,1-5.49.52,19,19,0,0,1-4.66-.56,21.35,21.35,0,0,1-4.34-1.62,29.77,29.77,0,0,1-4.3-2.7q-2.16-1.63-4.55-3.78a106.62,106.62,0,0,1-9.21-9.52q-5.25-6-11.86-15T878,944.71q-8.1-12.36-17.78-28.56l.07-.9,5.35-7.27q11.77-16.07,21.82-29.32A287.2,287.2,0,0,1,906.33,856a94.43,94.43,0,0,1,16.84-14.65q8-5.19,15.72-5.19a17.36,17.36,0,0,1,5.78.87,11.85,11.85,0,0,1,4.08,2.32,8.83,8.83,0,0,1,2.39,3.39,11.2,11.2,0,0,1,.76,4.08,14.75,14.75,0,0,1-1.67,6.65,15.38,15.38,0,0,1-4.77,5.61h-.57a15.44,15.44,0,0,0-5.82-4,17.35,17.35,0,0,0-5.89-1.08q-5.85,0-12.5,4.4a87.62,87.62,0,0,0-14,11.88,218.66,218.66,0,0,0-15.17,17.37Q883.68,897.54,875.44,908.6Z" transform="translate(-69.33 -18.51)"/><path class="cls-3" d="M120.39,789.1a7.06,7.06,0,0,1-4.58-1.57,7.37,7.37,0,0,1-2-3.08c-3.12,2-7.07,4.65-8.94,4.65-6.52,0-10.58-5-10.58-9.81,0-4,2-6.07,6.35-7.64,4.82-1.67,11.08-3.59,12.91-5.08v-2.75c0-4.54-2-7.11-5.74-7.11a4.26,4.26,0,0,0-3.42,1.63c-.94,1.18-1.35,2.79-2,5.08a2.84,2.84,0,0,1-3.08,2.33c-1.9,0-4.33-1.75-4.33-3.8,0-1.29,1-2.27,2.76-3.45A38.72,38.72,0,0,1,110.14,753a13.52,13.52,0,0,1,7.77,2.19c3.25,2.32,4.33,5.36,4.33,9.33v13.92c0,3.66,1.32,4.65,2.66,4.65a6.38,6.38,0,0,0,2.64-.7l.86,2.46Zm-6.88-19.52c-1.57.8-3.87,1.87-5.56,2.7-2.7,1.26-4.3,2.68-4.3,5.39,0,4.25,3.18,5.91,5.24,5.91a6.84,6.84,0,0,0,4.62-1.78Z" transform="translate(-69.33 -18.51)"/><path class="cls-3" d="M180.09,780.86c-3.66,4.89-9.06,8.24-14,8.24-10.82,0-17.18-8-17.18-16.49,0-5.86,3-11.17,8.2-14.92A23.43,23.43,0,0,1,170.56,753,12.71,12.71,0,0,1,177.8,755a2.92,2.92,0,0,1,1.45,2.65c-.05,2-2.23,4-3.37,4a2.53,2.53,0,0,1-1.7-.82c-3.13-2.57-5.87-3.75-8.3-3.75-3.91,0-8,3.42-8,11.67,0,10.45,7.74,13.86,11.63,13.86,3.34,0,5.87-.85,9.06-3.6Z" transform="translate(-69.33 -18.51)"/><path class="cls-3" d="M202.38,753c10.92,0,18.22,7.91,18.22,17.43,0,12.49-9.48,18.64-18.43,18.64-11.82,0-18.7-8.73-18.7-17.65C183.47,759.34,193.67,753,202.38,753Zm-1,2.93c-4,0-7.73,3.87-7.73,13.19,0,9.68,3.73,16.94,9.35,16.94,3.74,0,7.36-2.52,7.36-13.57C210.39,762.36,207.15,756,201.41,756Z" transform="translate(-69.33 -18.51)"/><path class="cls-3" d="M247.82,788.17v-2.46c3.84-.47,4.16-.86,4.16-6.17V766.47c0-5.46-2.54-7.84-6.23-7.84-2.53,0-4.78,1.15-7.07,2.92v18.5c0,4.94.38,5.19,4.19,5.66v2.46H224.61v-2.46c4.59-.65,5.07-.8,5.07-5.86v-16c0-4.77-.61-5-4.45-5.7v-2.32a71,71,0,0,0,13.55-3c-.05,1.33-.1,4-.1,5.76,1.61-1.08,3.33-2.24,5.27-3.41,2.37-1.39,4.1-2.12,6.44-2.12,6.5,0,10.59,4.57,10.59,12.32V780c0,5,.48,5.19,4.64,5.71v2.46Z" transform="translate(-69.33 -18.51)"/><path class="cls-3" d="M300.61,780.86c-3.65,4.89-9.06,8.24-13.95,8.24-10.83,0-17.19-8-17.19-16.49,0-5.86,2.95-11.17,8.2-14.92A23.48,23.48,0,0,1,291.09,753a12.76,12.76,0,0,1,7.24,1.94,2.91,2.91,0,0,1,1.44,2.65c0,2-2.22,4-3.37,4a2.49,2.49,0,0,1-1.69-.82c-3.13-2.57-5.87-3.75-8.31-3.75-3.91,0-8,3.42-8,11.67,0,10.45,7.74,13.86,11.64,13.86,3.33,0,5.86-.85,9.05-3.6Z" transform="translate(-69.33 -18.51)"/><path class="cls-3" d="M334.83,781c-5,6.69-11.18,8.15-14.29,8.15-10.47,0-16.54-7.68-16.54-16.78a19.75,19.75,0,0,1,5.77-13.79,17.81,17.81,0,0,1,12.38-5.5c7.6,0,13,6.11,13,12.4,0,1.39-.17,2.49-1.25,2.75-1.56.36-12.57,1-21,1.27.13,8.95,5.54,13.16,11.32,13.16a14.12,14.12,0,0,0,9.25-3.65Zm-14.4-24.83c-3.4,0-6.45,3.53-7.16,9.7,3.73-.05,7.3-.1,11.17-.24,1.24,0,1.73-.28,1.73-1.54C326.25,760.09,324.05,756.12,320.43,756.12Z" transform="translate(-69.33 -18.51)"/><path class="cls-3" d="M359,788.17H338.65v-2.46c4.56-.47,5-.85,5-5.63V763.43c0-4.3-.32-4.63-4.42-5.32v-2.24a66.74,66.74,0,0,0,13.42-3v8.41c3.35-4.88,6.42-8.23,10-8.23,3,0,5.05,1.88,5.05,4.32a6.7,6.7,0,0,1-3.64,5.76,2.05,2.05,0,0,1-2.36-.3c-1.31-1.11-2.33-2.19-3.73-2.19s-3.74,1.5-5.3,4.79v14.64c0,4.81.51,5.09,6.35,5.66Z" transform="translate(-69.33 -18.51)"/><path class="cls-3" d="M392.06,788.17v-2.46c3.84-.47,4.17-.86,4.17-6.17V766.47c0-5.46-2.55-7.84-6.24-7.84-2.53,0-4.78,1.15-7.07,2.92v18.5c0,4.94.38,5.19,4.19,5.66v2.46H368.85v-2.46c4.59-.65,5.07-.8,5.07-5.86v-16c0-4.77-.61-5-4.45-5.7v-2.32a71,71,0,0,0,13.55-3c0,1.33-.1,4-.1,5.76,1.61-1.08,3.33-2.24,5.27-3.41,2.37-1.39,4.1-2.12,6.44-2.12,6.5,0,10.59,4.57,10.59,12.32V780c0,5,.48,5.19,4.64,5.71v2.46Z" transform="translate(-69.33 -18.51)"/><path class="cls-3" d="M451.41,753c10.92,0,18.22,7.91,18.22,17.43,0,12.49-9.47,18.64-18.43,18.64-11.81,0-18.69-8.73-18.69-17.65C432.51,759.34,442.7,753,451.41,753Zm-1,2.93c-4,0-7.73,3.87-7.73,13.19,0,9.68,3.73,16.94,9.35,16.94,3.74,0,7.36-2.52,7.36-13.57C459.42,762.36,456.18,756,450.44,756Z" transform="translate(-69.33 -18.51)"/><path class="cls-3" d="M478.61,754v-1.79a19,19,0,0,1,7.46-14.66,18,18,0,0,1,9.61-4c3,0,5.46.9,6.85,2.27a2.81,2.81,0,0,1,.64,3.21,6.19,6.19,0,0,1-2.56,3.08,2.13,2.13,0,0,1-2.76-.15c-1.82-1.75-4.19-4-6.59-4-3.5,0-3.71,4.09-3.66,12.64V754h7.82c.38.75,0,3-1,3.63h-6.8v22.15c0,5.07.68,5.35,6.15,6v2.46H473.54v-2.46c4.71-.57,5.07-.93,5.07-5.8V757.59h-5.47l-.37-1,2-2.67Z" transform="translate(-69.33 -18.51)"/><path class="cls-3" d="M542.65,788.17v-2.61c5.14-.67,5.36-1.5,4.23-4.69-.89-2.56-2.29-6.18-3.67-9.9H526.88c-1,2.78-2.18,5.75-3.1,8.42-1.73,4.92-.07,5.54,6.39,6.17v2.61H510.69v-2.61c5.08-.62,6.37-1.27,9.15-7.93l16.75-40.21,3.42-.61c5.13,13.38,10.65,27.44,15.83,40.53,2.85,7,3.57,7.6,9,8.22v2.61Zm-7.44-38.46c-2.43,5.95-4.85,11.78-7,17.59h13.62Z" transform="translate(-69.33 -18.51)"/><path class="cls-3" d="M585.72,773.21H566l.62-5.57h19.71Z" transform="translate(-69.33 -18.51)"/><path class="cls-3" d="M614.84,737.89c6.15,0,11.06.9,14.37,3.18A13.11,13.11,0,0,1,635,752.5c0,11.25-10,15.91-18.27,16a18.19,18.19,0,0,1-2.33-.15l-5-1.24v11.06c0,6.5.56,6.75,7.72,7.43v2.61H592.66v-2.61c6.36-.7,7-1,7-7.48v-30c0-6.64-.83-7.14-7-7.61v-2.62ZM609.41,764a12.31,12.31,0,0,0,4.84.85c4.3,0,10.58-2.28,10.58-12.33,0-8.61-5.24-11.66-11-11.66-1.92,0-3.14.39-3.62.83s-.78,1.32-.78,2.8Z" transform="translate(-69.33 -18.51)"/><path class="cls-3" d="M669.18,736.81c14.53,0,26.76,10.33,26.76,25.63,0,16.53-12.09,26.89-27.2,26.89-15.91,0-27.46-11.29-27.46-26.08C641.28,749.8,651.26,736.81,669.18,736.81ZM667.82,740c-8.51,0-15.32,7.57-15.32,21.54,0,13.53,6.39,24.53,17.48,24.53,8.4,0,14.85-7.06,14.85-21.49C684.83,749,677.61,740,667.82,740Z" transform="translate(-69.33 -18.51)"/><path class="cls-3" d="M758.51,740.51c-5,.59-6.59,1.51-6.83,5-.19,2.83-.4,5.68-.4,12.57V789h-4l-33.95-39.3V767.8c0,6.81.19,10,.4,12.24.27,3.59,2.07,5.15,8,5.52v2.61H701.84v-2.61c4.74-.39,6.73-1.55,7.16-5.24a112.52,112.52,0,0,0,.45-12.55V749c0-2.41-.16-4-1.66-5.86s-3.33-2.25-6.92-2.58v-2.62h14.46l31.95,35.9V758.1c0-6.89-.11-9.72-.35-12.39-.24-3.38-1.73-4.82-8.34-5.2v-2.62h19.92Z" transform="translate(-69.33 -18.51)"/><path class="cls-3" d="M793.36,750.33c-1.52-5-3.9-10.46-11.2-10.46-5.25,0-8.09,3.55-8.09,7.8,0,4.71,3.3,7.32,10.14,10.62,7.84,3.74,14,7.6,14,15.64,0,8.81-7.68,15.4-18.83,15.4a46.32,46.32,0,0,1-13.15-2.39c-.52-1.84-1.77-9.29-2.34-12.92l2.92-.67c1.53,4.85,5.71,12.87,13.76,12.87,5.34,0,8.52-3.18,8.52-8.35,0-5-3.35-7.58-9.93-11-7.29-3.76-13.68-7.61-13.68-15.92,0-8.08,6.3-14.19,17.9-14.19a66.89,66.89,0,0,1,11.36,1.36c.33,2.84.81,6.62,1.45,11.54Z" transform="translate(-69.33 -18.51)"/><path class="cls-3" d="M853,788.69c-.68,0-1.62,0-2.62-.1-8.72-.44-11.76-2.31-14.57-6.1-3.15-4.15-5.68-8.92-8.37-13.32-1.35-2.22-2.45-2.69-5.57-2.69l-2-.05V778c0,6.37.84,6.86,7,7.53v2.61H803.29v-2.61c6.33-.65,7-1.16,7-7.53V748c0-6.27-.83-6.91-7-7.45v-2.62H825.7c6.73,0,10.79.75,14,2.83A11.57,11.57,0,0,1,845.14,751c0,6.81-4.64,10.63-10.19,12.81,1.29,2.34,4.55,7.43,7,11a65.47,65.47,0,0,0,6.22,8,10.62,10.62,0,0,0,5.36,3.46Zm-30.4-25.24c3.73,0,6.39-.57,8.25-2.09,2.83-2.2,4-5.19,4-9.22,0-8.22-5.21-11.19-10.32-11.19-2.23,0-3.39.31-3.91.77s-.81,1.37-.81,3.08v18.65Z" transform="translate(-69.33 -18.51)"/><path class="cls-3" d="M854.28,788.17v-2.61c6.3-.6,7-1,7-7.53V748.12c0-6.56-.75-7.07-7-7.61v-2.62h23.77v2.62c-6.28.59-7,1-7,7.61V778c0,6.5.7,6.88,7,7.53v2.61Z" transform="translate(-69.33 -18.51)"/><path class="cls-3" d="M883.72,737.89h23.43v2.62c-6,.64-6.95,1.08-6.95,7.71v13.11c1.67-.36,3.58-1.59,6.12-3.91a166.14,166.14,0,0,0,12.22-12.68c2.11-2.48,1.71-3.59-1.92-4l-1.79-.18v-2.62h20.61v2.62c-5.74.69-8.41,1.08-13.61,6.37-2.89,2.85-7.66,7.42-11.78,11.54,5.45,6.86,12.67,15.71,18.18,22.07,3.38,3.91,4.43,4.47,8.85,5.07v2.61h-15c-4.37-5.22-11.28-13.93-17.57-21.88-1.75-2.26-3.07-2.62-4.36-2.44v14c0,6.63.62,7,7,7.67v2.61H883.72v-2.61c6.25-.6,7-1,7-7.67V748.22c0-6.66-.72-7.2-7-7.71Z" transform="translate(-69.33 -18.51)"/></svg>